<?xml version="1.0" ?><svg id="Layer_2" style="enable-background:new 0 0 32 32;" fill="#EE0033" version="1.1" viewBox="0 0 32 32" xml:space="preserve" xmlns="http://www.w3.org/2000/svg" xmlns:xlink="http://www.w3.org/1999/xlink"><g><path d="M2,14.34998h10.84998c0.83002,0,1.5-0.66998,1.5-1.5V2c0-0.83002-0.66998-1.5-1.5-1.5H2C1.16998,0.5,0.5,1.16998,0.5,2   v10.84998C0.5,13.67999,1.16998,14.34998,2,14.34998z"/><path d="M30,0.5H19.15002c-0.83002,0-1.5,0.66998-1.5,1.5v10.84998c0,0.83002,0.66998,1.5,1.5,1.5H30   c0.83002,0,1.5-0.66998,1.5-1.5V2C31.5,1.16998,30.83002,0.5,30,0.5z"/><path d="M2,31.5h10.84998c0.83002,0,1.5-0.67004,1.5-1.5V19.14996c0-0.82996-0.66998-1.5-1.5-1.5H2c-0.83002,0-1.5,0.67004-1.5,1.5   V30C0.5,30.82996,1.16998,31.5,2,31.5z"/><path d="M30,23.07275h-3.92725v-3.92725c0-0.82861-0.67139-1.5-1.5-1.5s-1.5,0.67139-1.5,1.5v3.92725h-3.92725   c-0.82861,0-1.5,0.67139-1.5,1.5s0.67139,1.5,1.5,1.5h3.92725V30c0,0.82861,0.67139,1.5,1.5,1.5s1.5-0.67139,1.5-1.5v-3.92725H30   c0.82861,0,1.5-0.67139,1.5-1.5S30.82861,23.07275,30,23.07275z"/></g></svg>